<svg preserveAspectRatio="xMidYMid meet" data-bbox="19.51 12.02 73.94 73.04" viewBox="0 0 100 100" xmlns="http://www.w3.org/2000/svg" data-type="ugc" role="presentation" aria-hidden="true">
    <g>
        <path d="M78.59 57.12H22.5c-1.65 0-2.99-1.34-2.99-2.99V15.01c0-1.65 1.34-2.99 2.99-2.99h56.09c1.65 0 2.99 1.34 2.99 2.99v39.12c0 1.66-1.34 2.99-2.99 2.99z" fill="none" stroke="#00aeef" stroke-miterlimit="10"></path>
        <path fill="none" stroke="#00aeef" stroke-miterlimit="10" d="M59.94 57.19v6.22H41.15v-6.22h18.79z"></path>
        <path d="M78.97 85.06H22.12c-1.44 0-2.61-.79-2.61-1.76l8.73-10.97c.92-1.17 1.17-1.76 2.61-1.76h39.38c1.44 0 1.8.71 2.61 1.76l8.73 10.97c.01.98-1.16 1.76-2.6 1.76z" fill="none" stroke="#00aeef" stroke-miterlimit="10"></path>
        <path d="M76.03 50.32H25.06c-1.65 0-2.99-1.34-2.99-2.99v-29.8c0-1.65 1.34-2.99 2.99-2.99h50.96c1.65 0 2.99 1.34 2.99 2.99v29.8a2.97 2.97 0 0 1-2.98 2.99z" fill="none" stroke="#00aeef" stroke-miterlimit="10"></path>
        <path fill="none" stroke="#00aeef" stroke-miterlimit="10" d="M59.88 63.34v2.01H41.09v-2.01h18.79z"></path>
        <path d="M81.57 67.79c2.54-1.44 5.25-1.29 8.53 1.25 3.28 2.54 3.32 4.71 3.35 5.94.06 2.33-5.25 3.29-8.53.75-3.28-2.54-5.38-6.78-3.35-7.94z" fill="none" stroke="#00aeef" stroke-miterlimit="10"></path>
        <path d="M82.21 73.12s1.11-5.67 6.77-4.86" stroke-width=".5" fill="none" stroke="#00aeef" stroke-miterlimit="10"></path>
        <path d="M85.7 68.46s-1.8-1.87-4.12-.67" stroke-width=".5" fill="none" stroke="#00aeef" stroke-miterlimit="10"></path>
    </g>
</svg>