<svg preserveAspectRatio="xMidYMid meet" data-bbox="3.95 5 532.25 333.81" viewBox="0 0 541.19 343.79" xmlns="http://www.w3.org/2000/svg" data-type="ugc" role="presentation" aria-hidden="true">
    <g>
        <path d="M535.83 87.12v174.44l.37 23.73-.09 24.54a28.87 28.87 0 0 1-28.86 28.87l-31.24.11-20.29-.06H80.18l-21.67-.07-24.53-.09a28.86 28.86 0 0 1-28.86-28.86L5 278.49l.4-5.5V58.57l.08-24.53A28.87 28.87 0 0 1 34.34 5.17l31.25-.11h388.86L482.61 5l24.53.09c15.94 0 28.86 11.92 28.86 27.86l.12 32.24z" fill="none" stroke="#2aace2" stroke-miterlimit="10" stroke-width="10"></path>
        <path fill="#2aace2" d="M535.82 43.21v43.9H3.95v-43.9h531.87z"></path>
        <path d="M230.79 170.37c2.15-5.12 4.07-10 6.24-14.84q19.23-42.51 38.58-85a9.92 9.92 0 0 1 6.92-5.87c20.48-5.25 40.93-10.64 61.41-15.91a29.7 29.7 0 0 1 5.32-.31c-18.93 28.74-37.67 57.16-56.65 86l56-14q-68.86 92.93-137.38 185.39l-1.74-1.23 71.05-146.9z" fill="#2aace2"></path>
    </g>
</svg>