<svg preserveAspectRatio="xMidYMid meet" data-bbox="255.88 294.18 532.24 469.66" viewBox="0 0 1000 1000" xmlns="http://www.w3.org/2000/svg" data-type="ugc" role="presentation" aria-hidden="true">
    <g>
        <path d="M787.75 376.29v174.45l.37 23.73-.08 24.53c0 15.94-12.92 28.86-28.86 28.86l-31.24.11-20.29-.06H332.1l-21.66-.07-24.53-.08c-15.94 0-28.86-12.92-28.86-28.86l-.11-31.24.39-5.5V347.74l.08-24.53c0-15.94 12.92-28.86 28.86-28.86l31.24-.11h388.86l28.16-.06 24.53.08c15.94 0 28.86 11.92 28.86 27.86l.11 32.24-.28 21.93z" fill="none" stroke="#ffffff" stroke-width="10" stroke-miterlimit="10"></path>
        <path fill="#ffffff" d="M787.75 332.38v43.9H255.88v-43.9h531.87z"></path>
        <path d="M482.71 459.54c2.14-5.12 4.07-10.04 6.24-14.84 12.82-28.34 25.7-56.66 38.58-84.98 1.38-3.03 3.57-5.01 6.92-5.87 20.48-5.26 40.93-10.65 61.41-15.91 1.56-.4 3.27-.2 5.33-.3-18.94 28.73-37.67 57.16-56.66 85.97 18.86-4.71 37.25-9.3 56-13.98-45.9 61.95-91.59 123.6-137.37 185.38-.58-.41-1.11-.79-1.74-1.23 23.66-48.91 47.27-97.73 71.04-146.89-16.73 4.25-33.11 8.41-49.75 12.65z" fill="#ffffff"></path>
        <path d="M302.74 758.86c2.73 0 5.47 0 8.2-.33v2.95c-2.73-.33-5.47-.33-8.2-.33h-34.12c-2.73 0-5.69 0-8.42.33.33-2.74.33-5.47.33-8.2V688.1c0-2.73 0-5.47-.33-8.2h3.17c-.33 2.73-.33 5.47-.33 8.2v70.76h39.7z" stroke="#ffffff" stroke-width="6" stroke-miterlimit="10" fill="#ffffff"></path>
        <path d="M332.12 679.68c-.33 2.74-.33 5.47-.33 8.21v65.07c0 2.73 0 5.47.33 8.2h-3.17c.33-2.73.33-5.47.33-8.2v-65.07c0-2.74 0-5.47-.33-8.21h3.17z" stroke="#ffffff" stroke-width="6" stroke-miterlimit="10" fill="#ffffff"></path>
        <path d="M379.57 681.98h-22.31c-2.73 0-5.47 0-8.2.33v-2.95c2.73.32 5.47.32 8.2.32h47.14c2.73 0 5.46 0 8.2-.32v2.95c-2.73-.33-5.47-.33-8.2-.33h-22.31" stroke="#ffffff" stroke-width="6" stroke-miterlimit="10" fill="#ffffff"></path>
        <path d="M467.89 758.86c2.73 0 5.47 0 8.2-.33v2.95c-2.73-.33-5.47-.33-8.2-.33h-31.06c-2.73 0-5.69 0-8.42.33.33-2.74.33-5.47.33-8.2v-65.62c0-2.73 0-5.47-.33-8.31 2.73.32 5.69.32 8.42.32h29.42c2.73 0 5.47 0 8.2-.32v2.95c-2.73-.33-5.46-.33-8.2-.33h-34.99v37.29h31.28c2.73 0 5.47 0 8.2-.32v2.95c-2.73-.33-5.47-.33-8.2-.33h-31.28v37.29h36.63z" stroke="#ffffff" stroke-width="6" stroke-miterlimit="10" fill="#ffffff"></path>
        <path d="M559.5 742.78c-1.64 2.84-3.5 5.46-5.24 7.54-6.89 8.09-15.09 11.91-26.13 11.91-23.19 0-37.29-16.07-37.29-42.32 0-24.72 14.22-41.34 35.43-41.34 10.61 0 18.7 2.85 24.82 8.86 2.95 2.85 5.36 6.35 7.66 10.5l-2.85 1.64c-1.74-4.26-3.94-7.76-6.77-10.61-5.47-5.47-13.13-8.09-22.97-8.09-19.8 0-32.81 15.2-32.81 39.04 0 25.15 13.01 40.02 34.78 40.02 10.06 0 17.49-3.28 24.27-10.94 1.64-1.97 3.17-4.38 5.03-7.65l2.07 1.44z" stroke="#ffffff" stroke-width="6" stroke-miterlimit="10" fill="#ffffff"></path>
        <path d="M629.01 752.95c.98 2.73 2.19 5.47 3.5 8.2h-3.5c-.55-2.73-1.64-5.47-2.62-8.2l-9.08-24.28h-34.99l-9.08 24.28c-.98 2.73-1.97 5.47-2.63 8.2h-3.5c1.32-2.73 2.51-5.47 3.5-8.2L595 687.88c.98-2.74 2.85-8.21 2.85-8.21h3.94s1.85 5.47 2.84 8.21l24.38 65.07zm-12.68-26.57-16.51-44.07-16.62 44.07h33.13z" stroke="#ffffff" stroke-width="6" stroke-miterlimit="10" fill="#ffffff"></path>
        <path d="M696.13 752.62c1.74 2.85 3.61 5.8 5.8 8.53h-4.48c-1.1-3.06-2.63-5.79-4.38-8.53l-19.25-30.29h-23.73v30.62c0 2.73 0 5.47.33 8.2h-3.07c.22-2.73.22-5.47.22-8.2v-65.4c0-5.14-.11-6.45-.33-8.2 2.41.21 4.59.32 8.42.32h16.3c15.85 0 24.6 7.22 24.6 20.45 0 11.71-6.24 19.47-20.12 21.66l19.69 30.84zm-26.36-32.48c15.86 0 24.28-6.89 24.28-19.9 0-12.03-7.88-18.26-22.53-18.26h-21.44v38.16h19.69z" stroke="#ffffff" stroke-width="6" stroke-miterlimit="10" fill="#ffffff"></path>
        <path d="M744.87 679.68c24.93 0 38.93 14.22 38.93 39.7 0 26.03-14.44 41.77-38.06 41.77H727.8c-3.94 0-6.12.11-8.42.33.22-2.3.33-4.48.33-8.2v-65.73c0-3.83-.11-5.91-.33-8.2 2.3.21 4.48.32 8.42.32h17.07zm.87 79.18c22.09 0 35.54-14.88 35.54-39.48 0-24.06-13.12-37.4-36.52-37.4h-22.53v76.88h23.51z" stroke="#ffffff" stroke-width="6" stroke-miterlimit="10" fill="#ffffff"></path>
        <path d="M362.34 718.57c.33-1.86.6-3.63.96-5.39 2.14-10.36 4.31-20.71 6.47-31.06l19.62-4.44c-3.07 8.11-6.13 16.2-9.23 24.37 5.91-2.97 11.66-5.86 17.53-8.8-10.61 23.97-32.21 70.59-32.21 70.59 4.21-17.99 8.18-35.09 12.41-53.16-5.23 2.65-10.35 5.25-15.55 7.89z" fill="#ffffff"></path>
    </g>
</svg>