<svg preserveAspectRatio="xMidYMid meet" data-bbox="0.43 0.27 90.06 14.81" viewBox="0 0 90.87 15.19" xmlns="http://www.w3.org/2000/svg" data-type="ugc" role="presentation" aria-hidden="true" aria-labelledby="svgcid-kczmswlaeg4s">
    <title id="svgcid-kczmswlaeg4s"></title>
    <path
        d="M7.75 14.23a11.09 11.09 0 0 0 1.41-.06v.5a11.09 11.09 0 0 0-1.41 0H1.88a11.72 11.72 0 0 0-1.45 0 11.09 11.09 0 0 0 .06-1.41V2.06A11.09 11.09 0 0 0 .43.67h.55a11.09 11.09 0 0 0-.06 1.41v12.15z"
        fill="#ffffff"
        stroke="#2aace2"
        stroke-miterlimit="10"
        stroke-width=".75"
    ></path>
    <path
        d="M12.8.61a13.29 13.29 0 0 0-.05 1.41v11.19a13.29 13.29 0 0 0 .05 1.46h-.54a13.29 13.29 0 0 0 0-1.41V2.02a13.29 13.29 0 0 0 0-1.41z"
        fill="#ffffff"
        stroke="#2aace2"
        stroke-miterlimit="10"
        stroke-width=".75"
    ></path>
    <path
        d="M20.96 1h-3.83a11.09 11.09 0 0 0-1.41.06V.55a11.09 11.09 0 0 0 1.41.06h8.1a11.09 11.09 0 0 0 1.41-.06v.51A11.09 11.09 0 0 0 25.23 1H21.4"
        fill="#ffffff"
        stroke="#2aace2"
        stroke-miterlimit="10"
        stroke-width=".75"
    ></path>
    <path
        d="M36.16 14.23a11.09 11.09 0 0 0 1.41-.06v.5a11.09 11.09 0 0 0-1.41 0h-5.35a11.56 11.56 0 0 0-1.44 0 13.29 13.29 0 0 0 .05-1.41V1.98a13.86 13.86 0 0 0-.05-1.43 11.56 11.56 0 0 0 1.44.06h5.06a11 11 0 0 0 1.41-.06v.51A11 11 0 0 0 35.87 1h-6v6.42h5.37a11.16 11.16 0 0 0 1.42-.06v.51a11.16 11.16 0 0 0-1.42-.06h-5.38v6.42z"
        fill="#ffffff"
        stroke="#2aace2"
        stroke-miterlimit="10"
        stroke-width=".75"
    ></path>
    <path
        d="M51.91 11.46a9.21 9.21 0 0 1-.9 1.3 5.49 5.49 0 0 1-4.49 2c-4 0-6.42-2.76-6.42-7.28 0-4.25 2.45-7.11 6.1-7.11a5.8 5.8 0 0 1 4.27 1.52 7.66 7.66 0 0 1 1.31 1.81l-.49.28a5.42 5.42 0 0 0-1.16-1.82 5.34 5.34 0 0 0-4-1.39c-3.41 0-5.65 2.61-5.65 6.71 0 4.33 2.24 6.89 6 6.89a5.14 5.14 0 0 0 4.17-1.89 8.7 8.7 0 0 0 .92-1.26z"
        fill="#ffffff"
        stroke="#2aace2"
        stroke-miterlimit="10"
        stroke-width=".75"
    ></path>
    <path
        d="M63.87 13.21c.17.47.38.94.6 1.41h-.6a9.59 9.59 0 0 0-.45-1.41l-1.56-4.17h-6l-1.56 4.17a12.78 12.78 0 0 0-.47 1.46h-.61a14.3 14.3 0 0 0 .61-1.41l4.19-11.19c.17-.47.49-1.41.49-1.41h.68s.32.94.49 1.41zm-2.18-4.54-2.84-7.58-2.86 7.58z"
        fill="#ffffff"
        stroke="#2aace2"
        stroke-miterlimit="10"
        stroke-width=".75"
    ></path>
    <path
        d="M75.41 13.16a14.58 14.58 0 0 0 1 1.46h-.77a7.46 7.46 0 0 0-.75-1.46l-3.32-5.21H67.5v5.26a13.29 13.29 0 0 0 .07 1.46h-.53V1.96a11.9 11.9 0 0 0 0-1.41 13.66 13.66 0 0 0 1.44.06h2.81c2.72 0 4.23 1.24 4.23 3.52 0 2-1.07 3.34-3.46 3.72zm-4.53-5.59c2.73 0 4.18-1.19 4.18-3.43C75.06 2.08 73.7 1 71.18 1H67.5v6.57z"
        fill="#ffffff"
        stroke="#2aace2"
        stroke-miterlimit="10"
        stroke-width=".75"
    ></path>
    <path
        d="M83.8.61c4.29 0 6.69 2.44 6.69 6.83s-2.48 7.23-6.54 7.23h-3.09a13.14 13.14 0 0 0-1.44.06c0-.4.05-.77.05-1.41V1.96c0-.66 0-1-.05-1.41a13.14 13.14 0 0 0 1.44.06zm.15 13.62c3.8 0 6.11-2.56 6.11-6.79S87.81 1 83.78 1H79.9v13.23z"
        fill="#ffffff"
        stroke="#2aace2"
        stroke-miterlimit="10"
        stroke-width=".75"
    ></path>
    <path
        d="M18 7.3c.06-.32.1-.63.17-.93.36-1.78.74-3.56 1.11-5.34l3.37-.76-1.58 4.19 3-1.52c-1.81 4.13-5.5 12.14-5.5 12.14.72-3.09 1.41-6 2.14-9.14z"
        fill="#2aace2"
    ></path>
</svg>